<?xml version="1.0" standalone="no"?>
<!DOCTYPE svg PUBLIC "-//W3C//DTD SVG 20010904//EN"
 "http://www.w3.org/TR/2001/REC-SVG-20010904/DTD/svg10.dtd">
<svg version="1.0" xmlns="http://www.w3.org/2000/svg"
 width="700.000000pt" height="700.000000pt" viewBox="0 0 700.000000 700.000000"
 preserveAspectRatio="xMidYMid meet">
<metadata>
Created by potrace 1.11, written by Peter Selinger 2001-2013
</metadata>
<g transform="translate(0.000000,700.000000) scale(0.100000,-0.100000)"
fill="#000000" stroke="none">
<path d="M3430 6974 c-65 -12 -125 -40 -180 -83 -81 -63 -3120 -3104 -3156
-3158 -47 -71 -65 -125 -69 -209 -4 -82 6 -136 42 -213 22 -49 210 -241 1592
-1622 862 -861 1587 -1579 1612 -1595 90 -61 199 -84 304 -65 133 25 115 9
848 740 373 372 691 694 707 716 130 187 54 454 -160 554 -48 23 -68 26 -155
26 -171 0 -138 26 -743 -578 l-522 -522 -45 0 -45 0 -1245 1245 c-1337 1337
-1279 1275 -1240 1338 21 33 2468 2478 2492 2490 10 4 24 7 31 6 6 -1 22 -2
34 -3 14 -1 195 -175 533 -511 281 -281 527 -521 546 -534 49 -33 124 -57 189
-61 233 -11 418 194 388 429 -16 125 -6 113 -727 836 -366 366 -684 680 -706
696 -65 49 -137 74 -223 79 -42 2 -88 1 -102 -1z"/>
<path d="M5570 4838 c-189 -33 -323 -209 -307 -402 11 -133 24 -149 416 -541
239 -239 354 -360 359 -380 5 -16 5 -42 1 -57 -4 -17 -139 -159 -351 -370
-410 -411 -413 -414 -413 -573 0 -87 4 -107 26 -155 49 -105 128 -174 238
-207 103 -32 224 -15 311 43 48 32 1025 1009 1060 1059 50 73 65 130 65 240
-1 92 -4 106 -34 170 -31 66 -66 103 -548 583 -282 282 -531 523 -552 536 -79
50 -180 70 -271 54z"/>
<path d="M4506 4392 c-63 -125 -184 -245 -305 -306 -54 -27 -172 -69 -178 -63
-2 3 12 39 32 81 40 86 68 184 63 222 l-3 26 -38 -36 c-79 -74 -153 -120 -252
-153 -88 -30 -124 -34 -347 -38 -112 -2 -212 -6 -223 -8 -135 -32 -191 -55
-280 -111 -338 -217 -451 -683 -250 -1041 46 -83 161 -204 238 -252 88 -55
130 -74 227 -99 73 -19 106 -22 240 -19 129 2 172 7 255 29 175 46 361 152
475 271 l45 47 -50 -30 c-137 -84 -309 -147 -477 -176 -105 -18 -323 -17 -413
1 -227 46 -409 217 -481 452 -37 122 -24 302 31 426 72 163 218 293 390 348
57 18 92 22 190 21 106 0 129 -4 195 -29 41 -15 87 -36 102 -46 14 -11 29 -19
32 -19 11 0 51 -35 114 -99 110 -113 174 -276 176 -446 0 -107 -22 -165 -85
-218 -91 -79 -243 -73 -309 10 -20 25 -31 24 -60 -7 -15 -17 -70 -49 -101 -59
-158 -51 -325 30 -390 189 -8 20 -14 67 -13 110 0 87 25 148 83 209 77 80 137
99 311 98 107 0 125 -3 153 -21 56 -37 65 -71 66 -229 1 -153 11 -188 62 -215
31 -17 96 -9 118 15 42 45 53 153 26 246 -8 29 -14 54 -13 57 1 3 -11 24 -25
47 -15 24 -27 46 -27 50 0 16 -99 112 -151 146 -242 159 -572 73 -708 -185
-131 -247 -35 -542 219 -677 149 -79 425 -82 660 -7 344 110 618 372 748 711
78 207 96 428 49 620 -26 105 -68 205 -87 205 -5 0 -21 -22 -34 -48z"/>
<path d="M3299 3529 c-129 -66 -141 -241 -21 -322 103 -70 250 -10 279 113 3
15 6 164 4 208 -1 23 -3 23 -114 21 -87 -1 -120 -5 -148 -20z"/>
</g>
</svg>
