<svg width="200" height="200" viewBox="0 0 200 200" fill="none" xmlns="http://www.w3.org/2000/svg">
<path d="M91.5881 4.17653L4.17997 91.5128C-0.519238 96.2081 -0.519238 103.792 4.17997 108.487L91.5881 195.823C96.2873 200.519 103.877 200.519 108.577 195.823L145.225 159.205C149.434 155 149.434 148.182 145.225 143.977C141.017 139.772 134.194 139.772 129.985 143.977L102.202 171.737C101.032 172.906 99.2572 172.906 98.0875 171.737L28.2859 101.993C27.1163 100.824 27.1163 99.0508 28.2859 97.8821L98.0875 28.1379C99.2572 26.9692 101.032 26.9692 102.202 28.1379L129.985 55.8983C134.194 60.1034 141.017 60.1034 145.225 55.8983C149.434 51.6933 149.434 44.8756 145.225 40.6706L108.581 4.05574C103.862 -0.537988 96.2693 -0.500799 91.5881 4.17653Z" fill="url(#paint0_linear)"/>
<path d="M91.5881 4.17653L4.17997 91.5128C-0.519238 96.2081 -0.519238 103.792 4.17997 108.487L91.5881 195.823C96.2873 200.519 103.877 200.519 108.577 195.823L145.225 159.205C149.434 155 149.434 148.182 145.225 143.977C141.017 139.772 134.194 139.772 129.985 143.977L102.202 171.737C101.032 172.906 99.2572 172.906 98.0875 171.737L28.2859 101.993C27.1163 100.824 27.1163 99.0508 28.2859 97.8821L98.0875 28.1379C101 25.6272 105.752 20.5418 112.73 19.3524C117.916 18.4685 123.585 20.414 129.739 25.1889C125.625 21.0784 118.572 14.034 108.581 4.05574C103.862 -0.537988 96.2693 -0.500799 91.5881 4.17653Z" fill="url(#paint1_linear)"/>
<path d="M153.686 135.855C157.894 140.06 164.717 140.06 168.926 135.855L195.96 108.843C200.659 104.147 200.659 96.5636 195.961 91.8688L168.691 64.7181C164.472 60.5181 157.647 60.5241 153.436 64.7317C149.227 68.9367 149.227 75.7544 153.436 79.9594L171.854 98.3624C173.024 99.531 173.024 101.305 171.854 102.473L153.686 120.627C149.477 124.832 149.477 131.65 153.686 135.855Z" fill="url(#paint2_linear)"/>
<path d="M132.598 89.9735C131.344 97.9202 127.343 105.159 121.306 110.403C115.269 115.647 107.588 118.556 99.6291 118.611C98.017 118.674 96.4028 118.575 94.81 118.316C91.4792 117.744 88.4429 116.034 86.2078 113.473C83.9727 110.911 82.6738 107.652 82.5278 104.239C82.56 100.433 84.0713 96.7921 86.7354 94.1025C89.3995 91.4129 93.0027 89.8903 96.7674 89.8634C100.532 89.8365 104.156 91.3075 106.858 93.9587C109.559 96.61 111.121 100.229 111.206 104.034C111.267 106.438 110.237 108.546 108.12 108.607C105.859 108.607 104.799 106.976 104.799 104.777V98.6681C104.8 97.6801 104.415 96.7318 103.727 96.0301C103.039 95.3285 102.104 94.9305 101.127 94.9229H96.0618C94.5886 94.9126 93.1363 95.2759 91.8377 95.9793C90.539 96.6828 89.4354 97.7042 88.6278 98.95C87.8201 100.196 87.3341 101.626 87.2142 103.111C87.0943 104.596 87.3442 106.087 87.9412 107.449C88.5383 108.811 89.4633 110 90.6318 110.907C91.8004 111.814 93.1751 112.411 94.6305 112.642C96.0859 112.874 97.5754 112.733 98.9631 112.233C100.351 111.732 101.592 110.888 102.574 109.778L102.751 109.511L102.929 109.807C103.538 110.644 104.342 111.315 105.27 111.762C106.198 112.209 107.22 112.417 108.247 112.368C110.077 112.233 111.782 111.381 112.999 109.993C114.215 108.605 114.847 106.791 114.759 104.938C114.777 103.348 114.601 101.762 114.235 100.216C113.295 95.8483 110.79 91.9867 107.202 89.3758C103.613 86.7649 99.1961 85.5895 94.8016 86.0761C90.407 86.5628 86.3461 88.677 83.4019 92.0114C80.4576 95.3457 78.8383 99.664 78.8562 104.134C78.9127 108.874 80.7841 113.407 84.077 116.78C87.37 120.154 91.8281 122.106 96.5147 122.226C96.5147 122.226 97.8413 122.348 99.3367 122.313C106.606 122.267 113.711 120.123 119.817 116.135C119.904 116.074 119.991 116.196 119.933 116.285C116.96 119.523 113.325 122.066 109.281 123.739C105.236 125.411 100.88 126.171 96.5153 125.968C93.6618 126.02 90.8275 125.487 88.1831 124.402C85.5388 123.317 83.1393 121.701 81.1294 119.652C79.1195 117.604 77.5409 115.165 76.4887 112.482C75.4365 109.8 74.9326 106.93 75.0073 104.045C75.0086 100.606 75.8034 97.2151 77.3283 94.1411C78.8532 91.0671 81.0663 88.395 83.7916 86.3374C87.4542 83.6106 91.8801 82.1334 96.4284 82.1197H103.227C105.882 82.1177 108.508 81.5566 110.937 80.4722C113.367 79.3878 115.546 77.8038 117.336 75.8211C117.374 75.7787 117.425 75.7496 117.48 75.7382C117.535 75.7261 117.593 75.7319 117.645 75.7548C117.697 75.7776 117.74 75.8164 117.769 75.8656C117.798 75.915 117.811 75.9723 117.806 76.0296C117.518 79.1188 116.501 82.093 114.84 84.7023C114.815 84.7476 114.804 84.7993 114.808 84.851C114.812 84.9025 114.831 84.9516 114.862 84.9926C114.893 85.0336 114.935 85.0647 114.983 85.0821C115.031 85.0993 115.083 85.1021 115.133 85.09C118.271 84.3734 121.198 82.922 123.68 80.8527C126.163 78.7834 128.13 76.1539 129.423 73.1757C129.456 73.1225 129.502 73.0783 129.555 73.0471C129.61 73.0162 129.671 73 129.733 73C129.795 73 129.856 73.0162 129.911 73.0471C129.965 73.0781 130.01 73.1223 130.043 73.1757C132.707 78.3356 133.605 84.2426 132.598 89.9735H132.598ZM96.4972 98.5919C95.4513 98.5918 94.429 98.9053 93.5593 99.4927C92.6897 100.08 92.0119 100.915 91.6116 101.892C91.2113 102.869 91.1065 103.944 91.3106 104.981C91.5146 106.018 92.0182 106.971 92.7577 107.719C93.4972 108.466 94.4394 108.975 95.4652 109.182C96.4909 109.388 97.5541 109.282 98.5203 108.877C99.4866 108.473 100.312 107.787 100.893 106.908C101.474 106.029 101.784 104.995 101.784 103.938V98.9467C101.78 98.8513 101.74 98.7609 101.673 98.6933C101.606 98.6257 101.517 98.5857 101.422 98.5809L96.4972 98.5919V98.5919Z" fill="#F74A5C"/>
<defs>
<linearGradient id="paint0_linear" x1="92.397" y1="0.639242" x2="175.46" y2="51.3646" gradientUnits="userSpaceOnUse">
<stop stop-color="#4285EB"/>
<stop offset="1" stop-color="#2EC7FF"/>
</linearGradient>
<linearGradient id="paint1_linear" x1="103.538" y1="0.639235" x2="62.5127" y2="212.67" gradientUnits="userSpaceOnUse">
<stop stop-color="#29CDFF"/>
<stop offset="0.378601" stop-color="#148EFF"/>
<stop offset="1" stop-color="#0A60FF"/>
</linearGradient>
<linearGradient id="paint2_linear" x1="184.571" y1="51.5252" x2="131.19" y2="135.008" gradientUnits="userSpaceOnUse">
<stop stop-color="#FA816E"/>
<stop offset="0.414726" stop-color="#F74A5C"/>
<stop offset="1" stop-color="#F51D2C"/>
</linearGradient>
</defs>
</svg>
